<?xml version="1.0" ?><!DOCTYPE svg  PUBLIC '-//W3C//DTD SVG 1.1//EN'  'http://www.w3.org/Graphics/SVG/1.1/DTD/svg11.dtd'><svg height="512px" style="enable-background:new 0 0 512 512;" version="1.1" viewBox="0 0 512 512" width="512px" xml:space="preserve" xmlns="http://www.w3.org/2000/svg" xmlns:xlink="http://www.w3.org/1999/xlink"><g id="_x32_67_x2C__consultation_x2C__chat_x2C__answer_x2C__contact_x2C__support"><g><path d="M407.944,85.955h-74.038c-3.26,0-6.246,1.342-8.409,3.479    c-2.137,2.164-3.479,5.149-3.479,8.409v40.729c0,3.288,1.316,6.273,3.479,8.41c2.163,2.164,5.149,3.506,8.409,3.506h41.881    c0.74,0,1.452,0.247,2,0.657l22.98,14.243v-11.531c0-1.862,1.508-3.369,3.37-3.369h3.807c3.287,0,6.245-1.342,8.409-3.506    l0.138-0.137c2.081-2.137,3.369-5.068,3.369-8.273V97.843c0-3.26-1.343-6.245-3.507-8.382    C414.189,87.297,411.231,85.955,407.944,85.955 M392.496,307.14c1.589-0.931,3.671-0.411,4.602,1.177    c0.932,1.59,0.41,3.672-1.178,4.603c-1.123,0.657-2.355,1.179-3.615,1.534l-0.219,0.055c-1.206,0.301-2.41,0.466-3.644,0.466    c-4.108,0-7.834-1.698-10.546-4.465c-2.684-2.739-4.355-6.519-4.355-10.655c0-2.082,0.439-4.108,1.232-5.943    c0.22-0.604,0.521-1.15,0.822-1.699c-1.178-0.958-2.219-2.109-3.068-3.396c-1.561-2.41-2.492-5.286-2.492-8.354    c0-3.78,1.369-7.26,3.671-9.916c1.204-1.425,2.657-2.602,4.327-3.479l-0.41-0.85c-0.768-1.836-1.206-3.835-1.206-5.917    c0-3.478,1.179-6.71,3.151-9.258c1.287-1.698,2.93-3.095,4.793-4.108c-0.22-1.041-0.356-2.109-0.356-3.15    c0-4.136,1.671-7.916,4.354-10.654c2.713-2.739,6.438-4.465,10.547-4.465c1.533,0,3.013,0.246,4.437,0.712l1.589,0.603    c0.85-0.686,1.78-1.233,2.767-1.698c1.809-0.85,3.808-1.343,5.916-1.343c0.85,0,1.726,0.109,2.631,0.273    c0.711-1.26,1.616-2.383,2.629-3.396c1.78-1.78,3.971-3.149,6.409-3.917c0.686-0.246,1.424-0.219,2.082,0    c2.41,0.768,4.602,2.137,6.382,3.89l0.055,0.081c1.014,0.986,1.862,2.109,2.603,3.342c0.876-0.164,1.753-0.273,2.629-0.273    c2.082,0,4.082,0.493,5.89,1.315l0.246,0.137c0.904,0.438,1.753,0.986,2.521,1.589l1.588-0.603    c1.426-0.466,2.932-0.712,4.466-0.712c4.108,0,7.834,1.726,10.518,4.465c2.685,2.738,4.355,6.519,4.355,10.654    c0,1.041-0.109,2.109-0.328,3.15c1.862,1.014,3.506,2.41,4.793,4.108c1.945,2.548,3.122,5.78,3.122,9.258    c0,2.082-0.41,4.081-1.177,5.917l-0.412,0.85c1.645,0.877,3.124,2.054,4.328,3.479c2.273,2.656,3.644,6.136,3.644,9.916    c0,3.067-0.932,5.943-2.493,8.354c-0.821,1.287-1.89,2.438-3.067,3.396c0.328,0.549,0.604,1.123,0.85,1.699    c0.767,1.835,1.205,3.861,1.205,5.943c0,4.137-1.671,7.916-4.328,10.655l-0.082,0.054c-2.685,2.713-6.409,4.411-10.49,4.411    c-1.287,0-2.575-0.192-3.836-0.521c-1.287-0.355-2.52-0.877-3.643-1.534c-1.589-0.931-2.109-3.013-1.178-4.603    c0.959-1.588,3.014-2.107,4.602-1.177c0.603,0.356,1.26,0.63,1.945,0.822c0.657,0.19,1.369,0.273,2.109,0.273    c2.219,0,4.218-0.903,5.697-2.355l0.055-0.056c1.479-1.533,2.41-3.643,2.41-5.971c0-1.205-0.247-2.355-0.657-3.342    c-0.438-1.041-1.096-2-1.917-2.795c-0.302-0.301-0.576-0.684-0.74-1.094c-0.712-1.727,0.082-3.672,1.78-4.384    c1.479-0.63,2.767-1.726,3.67-3.122c0.877-1.314,1.37-2.904,1.37-4.656c0-2.137-0.768-4.082-2-5.561    c-1.26-1.479-3.04-2.492-5.039-2.768c-0.713-0.109-1.424-0.438-1.945-0.986c-1.287-1.341-1.26-3.45,0.055-4.738    c0.768-0.74,1.37-1.616,1.808-2.574l0.083-0.219c0.438-1.014,0.657-2.137,0.657-3.315c0-1.972-0.63-3.779-1.727-5.204    c-1.095-1.424-2.656-2.492-4.437-2.958l-0.63-0.22c-1.672-0.793-2.383-2.793-1.589-4.465c0.273-0.574,0.493-1.178,0.603-1.779    c0.137-0.548,0.191-1.178,0.191-1.891c0-2.328-0.903-4.438-2.383-5.943c-1.479-1.508-3.506-2.438-5.752-2.438    c-0.877,0-1.698,0.137-2.438,0.383c-0.74,0.219-1.452,0.576-2.082,1.014c-1.424,1.068-3.452,0.877-4.602-0.521    c-0.657-0.767-1.452-1.397-2.356-1.835l-0.191-0.083c-0.904-0.438-1.944-0.685-3.041-0.685c-0.492,0-0.958,0.055-1.342,0.109    l-0.246,0.055c-0.438,0.109-0.904,0.247-1.288,0.412l-0.466,0.219c-1.753,0.602-3.67-0.328-4.272-2.082    c-0.493-1.451-1.314-2.768-2.383-3.808c-0.794-0.794-1.699-1.424-2.712-1.89c-1.014,0.466-1.944,1.123-2.711,1.89    c-1.069,1.04-1.891,2.356-2.384,3.808l-0.138,0.301c-0.767,1.671-2.766,2.41-4.437,1.644c-0.466-0.19-0.959-0.384-1.479-0.493    c-0.466-0.109-0.986-0.164-1.562-0.164c-1.095,0-2.137,0.246-3.067,0.685c-0.959,0.438-1.809,1.069-2.492,1.891l-0.027,0.027    c-1.123,1.314-3.068,1.589-4.521,0.603c-0.602-0.466-1.287-0.795-1.999-1.068l-0.164-0.027c-0.768-0.246-1.59-0.383-2.438-0.383    c-2.246,0-4.301,0.93-5.753,2.438c-1.479,1.506-2.41,3.615-2.41,5.943c0,0.713,0.082,1.343,0.192,1.891    c0.137,0.548,0.301,1.096,0.547,1.615l0.301,0.768c0.439,1.808-0.656,3.643-2.438,4.081c-1.779,0.466-3.342,1.534-4.465,2.958    c-1.067,1.425-1.726,3.232-1.726,5.204c0,1.179,0.247,2.302,0.658,3.315c0.411,1.013,1.04,1.945,1.835,2.711    c0.548,0.521,0.932,1.205,1.041,2.027c0.273,1.836-1.014,3.533-2.849,3.779c-2,0.275-3.78,1.288-5.041,2.768    c-1.26,1.479-2.026,3.424-2.026,5.561c0,1.725,0.52,3.342,1.369,4.684c0.877,1.314,2.109,2.383,3.562,3.04    c0.438,0.164,0.876,0.438,1.233,0.794c1.287,1.343,1.231,3.479-0.083,4.768c-0.794,0.766-1.479,1.725-1.917,2.793    c-0.412,0.986-0.658,2.109-0.658,3.314c0,2.328,0.932,4.438,2.411,5.943c1.451,1.507,3.506,2.438,5.752,2.438    c0.685,0,1.314-0.083,1.917-0.22l0.192-0.054C391.236,307.77,391.893,307.496,392.496,307.14z M418.572,352.225l-14.298-30.485    c-5.861,2.272-10.956,4.136-15.312,5.725c-19.722,7.177-23.256,8.491-23.557,21.913c-0.109,5.752,1.643,10.819,4.738,15.174    c2.575,3.563,6.108,6.712,10.3,9.368v-22.104h6.738v25.721c11.038,5.014,24.925,7.533,38.813,7.506    c13.75-0.056,27.419-2.603,38.32-7.725v-25.502h6.738v21.75c4.438-2.959,8.135-6.465,10.71-10.52    c3.095-4.902,4.656-10.654,4.136-17.339c-0.822-9.997-5.369-11.668-23.337-18.242c-4.383-1.589-9.533-3.479-15.422-5.752    l-19.119,37.909c-0.329,0.631-0.876,1.178-1.589,1.507c-1.671,0.794-3.67,0.055-4.437-1.616L418.572,352.225z M202.592,387.643    v-76.477h-51.44l-13.394,76.477H202.592z M209.331,311.166v76.477h64.863l-13.396-76.477H209.331z M227.656,227.458v-24.816    c-6.437,2.52-13.422,3.89-20.708,3.89c-7.916,0-15.449-1.616-22.298-4.52v26.433l20.188,19.421L227.656,227.458z M175.366,228.855    l-1.397,27.008h64.068l-0.959-27.83l-29.993,26.844c-1.288,1.232-3.369,1.26-4.657,0L175.366,228.855z M210.782,99.925    L210.782,99.925h-0.163l-0.193-0.028h-0.163h-0.111h-0.054l-0.191-0.027h-0.165h-0.165l-0.081-0.027h-0.11h-0.165h-0.163    l-0.191-0.027h-0.165h-0.165h-0.191h-0.109h-0.056l-0.191-0.027h-0.165h-0.163h-0.083h-0.11h-0.164h-0.191h-0.165h-0.493h-0.165    h-0.356l-0.274,0.027h-0.219h-0.437h-0.056l-0.493,0.027h-0.081l-0.439,0.027l-0.191,0.027h-0.302l-0.33,0.028l-0.63,0.054h-0.026    l-0.493,0.055h-0.11l-0.354,0.056l-0.275,0.026l-0.218,0.027l-0.413,0.056h-0.081l-0.493,0.055l-0.056,0.026l-0.411,0.057    l-0.191,0.026l-0.302,0.056l-0.328,0.055l-0.165,0.027l-0.437,0.055H198.1l-0.465,0.109l-0.139,0.027l-0.354,0.055l-0.248,0.055    l-0.219,0.055l-0.382,0.082h-0.083l-0.493,0.11l-0.028,0.026l-0.439,0.082l-0.163,0.056l-0.302,0.054l-0.302,0.083l-0.164,0.054    l-0.438,0.11h-0.028l-0.465,0.137l-0.109,0.028l-0.33,0.109l-0.246,0.055l-0.22,0.082l-0.384,0.109l-0.519,0.164l-0.055,0.027    c-7.561,2.438-14.354,6.684-19.832,12.162c-4.492,4.492-8.107,9.807-10.628,15.723c2.329,0.904,4.768,1.644,7.259,2.191    c3.452,0.767,7.094,1.178,10.848,1.178c10.737,0,20.68-3.369,28.787-9.121c2.821-2,5.424-4.273,7.752-6.793l0.028-0.027    l0.055-0.055l0.054-0.055l0.054-0.083l0.686-0.739l0,0l0.109-0.109l0.986-1.178v-0.027l0.109-0.109l0.165-0.22h0.028l0.109-0.137    l0.083-0.11l0.054-0.081l0.055-0.056l0.083-0.109l0.11-0.137l0.026-0.027l0.054-0.082l0.111-0.137l0.083-0.11l0.026-0.026    l0.083-0.11l0.083-0.11l0.083-0.109v-0.027l0.109-0.109l0.083-0.137l0.054-0.082l0.055-0.027l0.083-0.137l0.082-0.109l0.055-0.055    l0.056-0.083l0.081-0.137c0.795-1.096,1.536-2.219,2.247-3.396c0.657-1.096,1.26-2.219,1.835-3.342l0.027-0.054l0.383-0.768    l0.027-0.027l0.055-0.138l0.082-0.164l0.137-0.273l0.056-0.137l0.027-0.056l0.11-0.246l0.054-0.137l0,0l0.083-0.137l0.055-0.164    l0.055-0.11v-0.027l0.082-0.138l0.055-0.164l0.027-0.055C220.589,101.432,215.795,100.309,210.782,99.925z M231.408,106.197    l-0.055,0.082l-0.055,0.109l-0.054,0.109l-0.028,0.082v0.027l-0.109,0.22l-0.055,0.109c-0.931,2.082-1.972,4.081-3.123,5.999    c-0.959,1.588-2,3.149-3.123,4.656l-0.083,0.109l-0.082,0.082l-0.083,0.109l-0.027,0.027l-0.056,0.083l-0.082,0.108l-0.055,0.083    l-0.082,0.109l-0.055,0.055l-0.027,0.056l-0.083,0.082l-0.082,0.109l-0.083,0.109l-0.055,0.082h-0.027l-0.082,0.109l-0.083,0.109    l-0.083,0.082l-0.082,0.109v0.027l-0.083,0.083l-0.055,0.083l-0.082,0.109l-0.083,0.109l0,0c4.136,3.779,8.903,6.875,14.134,9.093    c5.095,2.165,10.656,3.507,16.462,3.862l-0.082-0.246l-0.109-0.273v-0.027l-0.083-0.22l-0.11-0.247l-0.027-0.081l-0.083-0.165    l-0.082-0.273l-0.109-0.247l-0.11-0.246l-0.083-0.191l-0.027-0.056l-0.082-0.246l-0.109-0.246l0,0l-0.11-0.247l-0.109-0.247    l-0.027-0.054l-0.083-0.22l-0.11-0.219l-0.054-0.11l-0.412-0.876l-0.109-0.219l-0.028-0.028l-0.11-0.246    c-0.493-0.958-1.013-1.917-1.534-2.821l-0.027-0.082l-0.11-0.164l-0.576-0.904l-0.137-0.246l-0.137-0.191v-0.027l-0.137-0.22    l-0.301-0.466l-0.137-0.219l-0.055-0.082l-0.11-0.137l-0.137-0.22l-0.11-0.138l-0.054-0.082l-0.137-0.219l-0.137-0.191    l-0.028-0.027l-0.164-0.219l-0.137-0.221h-0.027l-0.137-0.218l-0.165-0.22l-0.027-0.055l-0.137-0.137l-0.137-0.219l-0.11-0.109    l-0.054-0.109l-0.165-0.221l-0.137-0.164l-0.027-0.027l-0.164-0.219l-0.165-0.191v-0.027l-0.164-0.192l-0.164-0.219l-0.055-0.028    l-0.137-0.164l-0.164-0.219l-0.083-0.082l-0.082-0.137l-0.192-0.219l-0.109-0.11l-0.082-0.083l-0.192-0.218l-0.11-0.138    l-0.054-0.082l-0.192-0.219l-0.137-0.137l-0.054-0.056l-0.192-0.218l-0.164-0.166l-0.027-0.055l-0.192-0.191l-0.192-0.191V115.4    l-0.411-0.411l0,0l-0.191-0.191l-0.192-0.192l-0.027-0.027l-0.192-0.191C238.996,111.209,235.38,108.416,231.408,106.197z     M255.813,139.669c-7.505-0.138-14.654-1.726-21.2-4.52c-5.972-2.547-11.423-6.081-16.162-10.408    c-2,1.917-4.164,3.697-6.436,5.313c-9.286,6.574-20.599,10.436-32.842,10.436c-4.192,0-8.328-0.465-12.353-1.369    c-2.739-0.603-5.452-1.425-8.055-2.41c-1.095,4.137-1.698,8.463-1.698,12.955c0,13.752,5.589,26.215,14.627,35.254    c9.012,9.012,21.475,14.6,35.253,14.6c13.667,0,26.077-5.506,35.088-14.408l0.164-0.191c9.04-9.039,14.627-21.502,14.627-35.254    C256.827,146.243,256.471,142.9,255.813,139.669z M164.518,327.738c-1.862,0-3.369-1.534-3.369-3.369    c0-1.863,1.507-3.369,3.369-3.369h20.927c1.864,0,3.369,1.506,3.369,3.369c0,1.835-1.505,3.369-3.369,3.369H164.518z     M160.958,344.857c-1.862,0-3.369-1.534-3.369-3.369c0-1.863,1.507-3.369,3.369-3.369h24.487c1.864,0,3.369,1.506,3.369,3.369    c0,1.835-1.505,3.369-3.369,3.369H160.958z M157.808,361.977c-1.863,0-3.369-1.533-3.369-3.368c0-1.862,1.506-3.369,3.369-3.369    h27.637c1.864,0,3.369,1.507,3.369,3.369c0,1.835-1.505,3.368-3.369,3.368H157.808z M153.835,379.097    c-1.862,0-3.369-1.507-3.369-3.369s1.507-3.369,3.369-3.369h31.61c1.864,0,3.369,1.507,3.369,3.369s-1.505,3.369-3.369,3.369    H153.835z M247.568,321c1.835,0,3.342,1.506,3.342,3.369c0,1.835-1.506,3.369-3.342,3.369h-20.954    c-1.835,0-3.369-1.534-3.369-3.369c0-1.863,1.534-3.369,3.369-3.369H247.568z M251.13,338.119c1.835,0,3.369,1.506,3.369,3.369    c0,1.835-1.534,3.369-3.369,3.369h-24.516c-1.835,0-3.369-1.534-3.369-3.369c0-1.863,1.534-3.369,3.369-3.369H251.13z     M254.279,355.239c1.863,0,3.369,1.507,3.369,3.369c0,1.835-1.506,3.368-3.369,3.368h-27.665c-1.835,0-3.369-1.533-3.369-3.368    c0-1.862,1.534-3.369,3.369-3.369H254.279z M258.224,372.358c1.863,0,3.369,1.507,3.369,3.369s-1.506,3.369-3.369,3.369h-31.609    c-1.835,0-3.369-1.507-3.369-3.369s1.534-3.369,3.369-3.369H258.224z M345.246,106.197c-1.863,0-3.369-1.507-3.369-3.342    c0-1.863,1.506-3.369,3.369-3.369h51.358c1.862,0,3.369,1.506,3.369,3.369c0,1.835-1.507,3.342-3.369,3.342H345.246z     M345.246,127.041c-1.863,0-3.369-1.533-3.369-3.369c0-1.861,1.506-3.369,3.369-3.369h51.358c1.862,0,3.369,1.508,3.369,3.369    c0,1.836-1.507,3.369-3.369,3.369H345.246z M69.826,311.139c-1.862,0-3.369-1.506-3.369-3.369c0-1.836,1.507-3.369,3.369-3.369    h39.389v-51.852l59.549-25.939l-1.698,32.623c0,1.862,1.534,3.369,3.369,3.369h71.163c1.862-0.056,3.314-1.616,3.26-3.451    l-1.096-32.295l59,25.693V304.4h32.486c1.836,0,3.369,1.533,3.369,3.369c0,1.863-1.533,3.369-3.369,3.369H69.826z     M264.688,219.761c-1.698-0.767-2.466-2.767-1.698-4.437c0.767-1.699,2.766-2.438,4.438-1.699l58.096,26.214    c1.233,0.548,1.973,1.78,1.973,3.067l0.027,38.156c0,1.863-1.533,3.369-3.369,3.369c-1.862,0-3.369-1.506-3.369-3.369V245.07    L264.688,219.761z M39.204,410.843c-1.863,0-3.369-1.507-3.369-3.341c0-1.863,1.506-3.369,3.369-3.369h249.643    c1.863,0,3.369,1.506,3.369,3.369c0,1.834-1.506,3.341-3.369,3.341H39.204z M185.391,426.045c-1.835,0-3.369-1.507-3.369-3.369    s1.534-3.369,3.369-3.369h172.757c1.862,0,3.369,1.507,3.369,3.369s-1.507,3.369-3.369,3.369H185.391z M375.842,426.045    c-1.861,0-3.369-1.507-3.369-3.369s1.508-3.369,3.369-3.369h21.585c1.862,0,3.369,1.507,3.369,3.369s-1.507,3.369-3.369,3.369    H375.842z M29.371,425.58c-1.835,0-3.369-1.507-3.369-3.369c0-1.863,1.534-3.369,3.369-3.369h81.871    c1.864,0,3.369,1.506,3.369,3.369c0,1.862-1.505,3.369-3.369,3.369H29.371z M294.9,111.813h20.379v26.76    c0,5.123,2.082,9.779,5.479,13.176c3.396,3.369,8.054,5.479,13.148,5.479h40.95l5.999,3.726v3.479    c0,3.286-1.343,6.271-3.479,8.408c-2.163,2.164-5.149,3.506-8.437,3.506h-41.854c-0.768,0-1.452,0.246-2.027,0.658l-22.953,14.243    v-11.532c0-1.863-1.535-3.369-3.369-3.369H294.9c-3.259,0-6.245-1.342-8.409-3.506l-0.137-0.137    c-2.054-2.137-3.341-5.068-3.341-8.271v-40.732c0-3.259,1.341-6.244,3.478-8.381C288.655,113.154,291.642,111.813,294.9,111.813z" style="fill-rule:evenodd;clip-rule:evenodd;"/></g></g><g id="Layer_1"/></svg>