<svg xmlns="http://www.w3.org/2000/svg" viewBox="0 0 18.77 19.05"><defs><style>.cls-1{fill:#19192d;}</style></defs><title>Asset 15</title><g id="Layer_2" data-name="Layer 2"><g id="MainPage"><g id="Content"><g id="Contato_gray"><path class="cls-1" d="M17.93,13.9c-.77-.81-3-2.35-4.45-2.37a1.67,1.67,0,0,0-.88.22,4.63,4.63,0,0,1-1.56.79c-.15,0-.31-.13-.66-.44L10.32,12a19.38,19.38,0,0,1-1.56-1.49l-.09-.1-.19-.2c-.33-.35-.57-.6-1.41-1.58l0,0c-.4-.47-.67-.77-.68-1s.18-.56.67-1.21a2.65,2.65,0,0,0,.1-2.87,12.89,12.89,0,0,0-1.7-2.51l0-.06A2.34,2.34,0,0,0,3.56,0,3.24,3.24,0,0,0,1.83.6L1.75.66A3.41,3.41,0,0,0,.24,2.42c-.32,1-.54,2.28.89,5A24,24,0,0,0,5.3,13.2a25.26,25.26,0,0,0,4.15,3.62,9.7,9.7,0,0,0,5,2.23,3.64,3.64,0,0,0,3.48-1.56C19.33,15.82,18.76,14.78,17.93,13.9Z"/></g></g></g></g></svg>